<svg width="27" height="27" viewBox="0 0 27 27" fill="none" xmlns="http://www.w3.org/2000/svg">
<path d="M13.5259 0.394409C10.9222 0.394409 8.41874 1.19326 6.31578 2.59124C4.11268 3.98922 2.51043 5.98633 1.50902 8.38287C0.507605 10.7794 0.307324 13.3757 0.808028 15.8721C1.30874 18.3685 2.51043 20.6652 4.4131 22.5624C6.31578 24.4597 8.51888 25.658 11.1225 26.1572C13.5259 26.6565 16.1295 26.3569 18.5329 25.3584C20.9363 24.3598 22.9391 22.6623 24.3411 20.5653C25.7431 18.4683 26.5442 15.8721 26.5442 13.3757C26.5442 9.98056 25.1422 6.58547 22.7388 4.18893C20.3355 1.79239 16.9307 0.394409 13.5259 0.394409ZM13.5259 24.5595C11.3228 24.5595 9.11972 23.8605 7.31719 22.6623C5.51465 21.464 4.01254 19.6666 3.21141 17.6695C2.31015 15.5725 2.00972 13.3757 2.51043 11.1789C2.91099 8.98201 4.01253 6.98489 5.51464 5.3872C7.11691 3.88936 9.11972 2.79095 11.3228 2.39152C13.5259 1.9921 15.729 2.19181 17.8319 2.99066C19.9349 3.88936 21.6373 5.28734 22.839 7.08475C24.0407 8.88215 24.7417 11.079 24.7417 13.2758C24.7417 16.2715 23.54 19.0675 21.437 21.1644C19.334 23.2614 16.5301 24.5595 13.5259 24.5595Z" fill="#F20530"/>
<path d="M18.1075 16.8945C18.4075 16.4945 18.7075 16.0945 18.9075 15.5945C19.3075 14.4945 19.5075 13.3945 19.2075 12.2945C19.0075 11.3945 18.6075 10.5945 18.1075 9.89443L21.1075 6.89443C21.4075 6.59443 21.4075 6.19443 21.1075 5.89443C20.8075 5.59443 20.4075 5.59443 20.1075 5.89443L17.1075 8.89443C16.4075 8.39443 15.6075 7.99443 14.7075 7.79443C13.6075 7.59443 12.4075 7.69443 11.4075 8.09443C10.9075 8.29443 10.5075 8.59443 10.1075 8.89443L7.10752 5.89443C6.80752 5.59443 6.40752 5.59443 6.10752 5.89443C5.80752 6.19443 5.80752 6.59443 6.10752 6.89443L9.20752 9.99443C8.90752 9.99443 8.80752 10.0945 8.70752 10.1945C8.10752 11.0945 7.70752 12.2945 7.70752 13.3945C7.70752 14.6945 8.20752 15.8945 8.90752 16.8945L5.80752 19.9945C5.50752 20.2945 5.50752 20.6945 5.80752 20.9945C6.10752 21.2945 6.50752 21.2945 6.80752 20.9945L9.90752 17.8945C10.9075 18.6945 12.1075 19.0945 13.4075 19.0945C14.5075 19.0945 15.7075 18.7945 16.6075 18.0945C16.7075 17.9945 16.8075 17.8945 16.9075 17.8945L20.0075 20.9945C20.3075 21.2945 20.7075 21.2945 21.0075 20.9945C21.3075 20.6945 21.3075 20.2945 21.0075 19.9945L18.1075 16.8945ZM17.5075 14.9945C17.2075 15.7945 16.6075 16.4945 15.9075 16.8945C15.2075 17.3945 14.4075 17.5945 13.5075 17.5945C12.4075 17.5945 11.3075 17.0945 10.5075 16.2945C9.70752 15.4945 9.20752 14.3945 9.20752 13.2945C9.20752 12.3945 9.50752 11.5945 9.90752 10.8945C10.4075 10.1945 11.0075 9.59443 11.8075 9.29443C12.6075 8.99443 13.5075 8.89443 14.3075 9.09443C15.1075 9.29443 15.9075 9.69443 16.5075 10.2945C17.1075 10.8945 17.5075 11.6945 17.7075 12.4945C17.9075 13.3945 17.8075 14.2945 17.5075 14.9945Z" fill="#F20530"/>
<path d="M13.5077 14.9946C14.4077 14.9946 15.1077 14.2946 15.1077 13.3946C15.1077 12.4946 14.4077 11.7946 13.5077 11.7946C12.6077 11.7946 11.9077 12.4946 11.9077 13.3946C11.9077 14.2946 12.6077 14.9946 13.5077 14.9946Z" fill="#F20530"/>
</svg>
