<svg width="151" height="32" viewBox="0 0 151 32" fill="none" xmlns="http://www.w3.org/2000/svg">
<path d="M5.01465 8.98437L1.69238 9.53808L0.790039 1.7041C10.7021 -0.100592 17.0049 -0.203131 19.6982 1.39648C22.4053 2.98242 23.9365 5.63476 24.292 9.35351C24.4697 15.0684 20.6895 19.0332 12.9512 21.248L13.1357 30.8047L8.43945 31.1533L5.01465 8.98437ZM12.5615 14.4189C16.3896 13.1338 18.2422 11.5615 18.1191 9.70214C17.9141 8.59472 17.415 7.87695 16.6221 7.54882C15.8428 7.2207 14.291 7.27538 11.9668 7.71288L12.5615 14.4189Z" fill="#F20530"/>
<path d="M34.8125 3.59081C37.9844 3.59081 40.6914 4.67773 42.9336 6.85156C45.1758 9.01171 46.2969 11.6162 46.2969 14.665C46.2969 17.7275 45.1758 20.3457 42.9336 22.5195C40.6914 24.6797 37.9844 25.7598 34.8125 25.7598C31.6406 25.7598 28.9336 24.6797 26.6914 22.5195C24.4492 20.3457 23.3281 17.7275 23.3281 14.665C23.3281 11.6162 24.4492 9.01171 26.6914 6.85156C28.9336 4.67773 31.6406 3.59081 34.8125 3.59081ZM42.1953 12.1426C42.0586 12.7852 41.7373 13.3457 41.2314 13.8242C40.5342 14.4805 39.7002 14.8086 38.7295 14.8086C37.7588 14.8086 36.9248 14.4873 36.2275 13.8447C35.5439 13.1885 35.2021 12.4023 35.2021 11.4863C35.2021 10.5703 35.5439 9.79101 36.2275 9.14843C36.9248 8.50585 37.7588 8.18456 38.7295 8.18456C38.9209 8.18456 39.0986 8.19824 39.2627 8.22558C38.5107 7.84277 37.6768 7.65136 36.7607 7.65136C35.2432 7.65136 33.9443 8.17773 32.8643 9.23046C31.7979 10.2695 31.2646 11.5273 31.2646 13.0039C31.2646 14.4805 31.7979 15.7383 32.8643 16.7773C33.9443 17.8164 35.2432 18.3359 36.7607 18.3359C38.2783 18.3359 39.5703 17.8164 40.6367 16.7773C41.7168 15.7383 42.2568 14.4805 42.2568 13.0039C42.2568 12.7031 42.2363 12.416 42.1953 12.1426Z" fill="#F20530"/>
<path d="M44 5.33398L43.877 2.60644L52.3467 1.12988L52.6133 10.8916L60.6934 0.801752L66.7021 6.03124L57.8018 16.2441L70.7422 24.6728L70.2295 30.6816L54.6846 20.0381L54.7461 30.0459L49.0244 30.7227L47.6299 4.92382L44 5.33398Z" fill="#F20530"/>
<path d="M86.2051 14.583L90.2656 18.8076C87.6816 22.5264 84.0176 24.3926 79.2734 24.4062C71.7266 24.4062 67.9121 20.9814 67.8301 14.1318C67.8848 6.63964 71.2754 2.88671 78.002 2.87304C83.3477 2.96874 86.5059 5.27929 87.4766 9.80468L77.7559 17.6387C81.707 18.0762 84.5234 17.0576 86.2051 14.583ZM74.5361 15.3418L81.5293 9.90722C79.3965 8.06152 77.25 7.87011 75.0898 9.333C73.1348 11.1787 72.9502 13.1816 74.5361 15.3418Z" fill="#F20530"/>
<path d="M90.0605 30.4355L89.4248 2.33984C100.841 0.658197 107.178 4.73925 108.436 14.583C109.338 24.4814 103.213 29.7656 90.0605 30.4355ZM95.5156 22.8682C100.984 22.376 103.206 19.5801 102.181 14.4805C101.347 9.61328 98.9746 7.41894 95.0645 7.89746L95.5156 22.8682Z" fill="#F20530"/>
<path d="M125.949 14.583L130.01 18.8076C127.426 22.5264 123.762 24.3926 119.018 24.4062C111.471 24.4062 107.656 20.9814 107.574 14.1318C107.629 6.63964 111.02 2.88671 117.746 2.87304C123.092 2.96874 126.25 5.27929 127.221 9.80468L117.5 17.6387C121.451 18.0762 124.268 17.0576 125.949 14.583ZM114.28 15.3418L121.273 9.90722C119.141 8.06152 116.994 7.87011 114.834 9.333C112.879 11.1787 112.694 13.1816 114.28 15.3418Z" fill="#F20530"/>
<path d="M142.581 13.7832L150.702 26.1289L144.14 30.2715L138.623 20.5508L132.963 30.1894L127.016 26.0264L135.28 14.6855L129.805 5.04687L134.48 1.43749L139.423 8.96386L145.247 0.986322L149.554 1.88867L142.581 13.7832Z" fill="#F20530"/>
</svg>
