<svg width="68" height="68" viewBox="0 0 68 68" fill="none" xmlns="http://www.w3.org/2000/svg">
<path d="M5.37129 68C2.40955 68 0 65.5904 0 62.6287V5.37129C0 2.40955 2.40955 0 5.37129 0H62.6287C65.5904 0 68 2.40955 68 5.37129V62.6287C68 65.5904 65.5904 68 62.6287 68H5.37129V68Z" fill="#F20530"/>
<path d="M12.2742 23.6988C17.4108 23.6988 21.5749 19.5348 21.5749 14.3981C21.5749 9.26153 17.4108 5.09747 12.2742 5.09747C7.13756 5.09747 2.97351 9.26153 2.97351 14.3981C2.97351 19.5348 7.13756 23.6988 12.2742 23.6988Z" fill="#8C031C"/>
<path d="M12.2742 23.4865C17.2935 23.4865 21.3625 19.4175 21.3625 14.3982C21.3625 9.37887 17.2935 5.30991 12.2742 5.30991C7.25487 5.30991 3.18591 9.37887 3.18591 14.3982C3.18591 19.4175 7.25487 23.4865 12.2742 23.4865Z" fill="#DED9D8"/>
<path d="M12.2742 21.8781C16.4052 21.8781 19.7541 18.5292 19.7541 14.3982C19.7541 10.2672 16.4052 6.9183 12.2742 6.9183C8.14317 6.9183 4.79431 10.2672 4.79431 14.3982C4.79431 18.5292 8.14317 21.8781 12.2742 21.8781Z" fill="#28AAFD"/>
<path d="M12.2742 21.0566C15.7695 21.0566 18.603 18.0755 18.603 14.3982C18.603 10.7208 15.7695 7.73972 12.2742 7.73972C8.77884 7.73972 5.94531 10.7208 5.94531 14.3982C5.94531 18.0755 8.77884 21.0566 12.2742 21.0566Z" fill="#186B9F"/>
<path d="M10.9369 16.1234C13.2539 16.1234 15.1322 14.2451 15.1322 11.9281C15.1322 9.61107 13.2539 7.73276 10.9369 7.73276C8.61989 7.73276 6.74158 9.61107 6.74158 11.9281C6.74158 14.2451 8.61989 16.1234 10.9369 16.1234Z" fill="#28AAFD"/>
<path d="M9.77267 11.239C10.6603 11.239 11.3799 10.5194 11.3799 9.63174C11.3799 8.74407 10.6603 8.02448 9.77267 8.02448C8.885 8.02448 8.16541 8.74407 8.16541 9.63174C8.16541 10.5194 8.885 11.239 9.77267 11.239Z" fill="white"/>
<path d="M26.1298 9.64533C27.3491 9.64533 28.3376 8.65686 28.3376 7.43752C28.3376 6.21818 27.3491 5.22971 26.1298 5.22971C24.9105 5.22971 23.922 6.21818 23.922 7.43752C23.922 8.65686 24.9105 9.64533 26.1298 9.64533Z" fill="#8C031C"/>
<path d="M26.1299 9.2774C27.146 9.2774 27.9697 8.45367 27.9697 7.43756C27.9697 6.42144 27.146 5.59772 26.1299 5.59772C25.1138 5.59772 24.29 6.42144 24.29 7.43756C24.29 8.45367 25.1138 9.2774 26.1299 9.2774Z" fill="#FF1200"/>
<path d="M31.751 9.64533C32.9704 9.64533 33.9588 8.65686 33.9588 7.43752C33.9588 6.21818 32.9704 5.22971 31.751 5.22971C30.5317 5.22971 29.5432 6.21818 29.5432 7.43752C29.5432 8.65686 30.5317 9.64533 31.751 9.64533Z" fill="#8C031C"/>
<path d="M31.751 9.2774C32.7671 9.2774 33.5908 8.45367 33.5908 7.43756C33.5908 6.42144 32.7671 5.59772 31.751 5.59772C30.7349 5.59772 29.9111 6.42144 29.9111 7.43756C29.9111 8.45367 30.7349 9.2774 31.751 9.2774Z" fill="#FFA608"/>
<path d="M37.3721 9.64533C38.5915 9.64533 39.5799 8.65686 39.5799 7.43752C39.5799 6.21818 38.5915 5.22971 37.3721 5.22971C36.1528 5.22971 35.1643 6.21818 35.1643 7.43752C35.1643 8.65686 36.1528 9.64533 37.3721 9.64533Z" fill="#8C031C"/>
<path d="M37.3722 9.2774C38.3883 9.2774 39.212 8.45367 39.212 7.43756C39.212 6.42144 38.3883 5.59772 37.3722 5.59772C36.3561 5.59772 35.5323 6.42144 35.5323 7.43756C35.5323 8.45367 36.3561 9.2774 37.3722 9.2774Z" fill="#39B348"/>
<path d="M21.5525 30.6017H0.0168457V29.1857H21.5525C23.1132 29.1857 24.6318 28.634 25.8285 27.6323L31.2802 23.0691C32.7313 21.8544 34.5726 21.1855 36.465 21.1855H67.9833V22.6015H36.465C34.9044 22.6015 33.3858 23.1531 32.1891 24.1548L26.7373 28.7181C25.2862 29.9327 23.4449 30.6017 21.5525 30.6017Z" fill="#8C031C"/>
<path d="M8.07508 48.3278L3.3831 44.7074C2.87604 44.3162 2.14062 44.6776 2.14062 45.3181V52.5588C2.14062 53.1993 2.87604 53.5607 3.3831 53.1694L8.07508 49.5491C8.47524 49.2403 8.47524 48.6365 8.07508 48.3278Z" fill="#FEC301"/>
<path d="M50.0623 64.0601H17.973C17.1059 64.0601 16.4004 63.3546 16.4004 62.4874C16.4004 61.6203 17.1059 60.9148 17.973 60.9148H50.0623C50.9295 60.9148 51.635 61.6203 51.635 62.4874C51.635 63.3546 50.9295 64.0601 50.0623 64.0601ZM17.973 61.529C17.4445 61.529 17.0146 61.959 17.0146 62.4874C17.0146 63.0159 17.4445 63.4458 17.973 63.4458H50.0623C50.5908 63.4458 51.0207 63.0159 51.0207 62.4874C51.0207 61.959 50.5908 61.529 50.0623 61.529H17.973Z" fill="#8C031C"/>
<path d="M64.0185 35.2036H56.5493C56.3147 35.2036 56.1245 35.0134 56.1245 34.7788C56.1245 34.5442 56.3147 34.354 56.5493 34.354H64.0185C64.2531 34.354 64.4433 34.5442 64.4433 34.7788C64.4433 35.0134 64.2531 35.2036 64.0185 35.2036Z" fill="#8C031C"/>
<path d="M64.0185 36.8319H56.5493C56.3147 36.8319 56.1245 36.6417 56.1245 36.4071C56.1245 36.1725 56.3147 35.9823 56.5493 35.9823H64.0185C64.2531 35.9823 64.4433 36.1725 64.4433 36.4071C64.4433 36.6417 64.2531 36.8319 64.0185 36.8319Z" fill="#8C031C"/>
<path d="M64.0185 38.4603H56.5493C56.3147 38.4603 56.1245 38.2701 56.1245 38.0355C56.1245 37.8009 56.3147 37.6107 56.5493 37.6107H64.0185C64.2531 37.6107 64.4433 37.8009 64.4433 38.0355C64.4433 38.2701 64.2531 38.4603 64.0185 38.4603Z" fill="#8C031C"/>
<path d="M64.0185 6.15949H56.5493C56.3147 6.15949 56.1245 5.96929 56.1245 5.7347C56.1245 5.50011 56.3147 5.30991 56.5493 5.30991H64.0185C64.2531 5.30991 64.4433 5.50011 64.4433 5.7347C64.4433 5.96929 64.2531 6.15949 64.0185 6.15949Z" fill="#8C031C"/>
<path d="M64.0185 7.78784H56.5493C56.3147 7.78784 56.1245 7.59764 56.1245 7.36305C56.1245 7.12846 56.3147 6.93826 56.5493 6.93826H64.0185C64.2531 6.93826 64.4433 7.12846 64.4433 7.36305C64.4433 7.59764 64.2531 7.78784 64.0185 7.78784Z" fill="#8C031C"/>
<path d="M64.0185 9.41617H56.5493C56.3147 9.41617 56.1245 9.22597 56.1245 8.99138C56.1245 8.75679 56.3147 8.56659 56.5493 8.56659H64.0185C64.2531 8.56659 64.4433 8.75679 64.4433 8.99138C64.4433 9.22597 64.2531 9.41617 64.0185 9.41617Z" fill="#8C031C"/>
</svg>
