<svg width="57" height="58" viewBox="0 0 57 58" fill="none" xmlns="http://www.w3.org/2000/svg">
<path d="M28.5 35.1366C32.1464 35.1366 35.1024 32.1806 35.1024 28.5342C35.1024 24.8878 32.1464 21.9318 28.5 21.9318C24.8536 21.9318 21.8976 24.8878 21.8976 28.5342C21.8976 32.1806 24.8536 35.1366 28.5 35.1366Z" fill="#D0D0D0"/>
<path d="M28.5 25.1302C30.3848 25.1302 31.904 26.6609 31.904 28.5342C31.904 30.419 30.3733 31.9382 28.5 31.9382C26.6152 31.9382 25.096 30.4076 25.096 28.5342C25.096 26.6609 26.6267 25.1302 28.5 25.1302ZM28.5 23.531C25.7357 23.531 23.4968 25.7699 23.4968 28.5342C23.4968 31.2985 25.7357 33.5374 28.5 33.5374C31.2643 33.5374 33.5032 31.2985 33.5032 28.5342C33.5146 25.7699 31.2643 23.531 28.5 23.531Z" fill="#D0D0D0"/>
<path d="M28.5 17.5912C33.4004 17.5912 37.5469 20.8124 38.9405 25.2445H56.8515C55.218 11.0345 43.1441 0 28.5 0C13.8559 0 1.79339 11.0345 0.148499 25.2445H18.0595C19.4531 20.8124 23.5996 17.5912 28.5 17.5912Z" fill="#D0D0D0"/>
<path d="M54.7497 32.0639C53.9615 38.0267 51.1743 43.5096 46.7651 47.7132C41.819 52.4309 35.3309 55.0238 28.4886 55.0238C21.6463 55.0238 15.1581 52.4309 10.212 47.7132C5.81423 43.521 3.02705 38.0267 2.22745 32.0639H15.9577C16.6317 34.4627 17.991 36.6331 19.8758 38.3008C22.2517 40.3912 25.3016 41.5449 28.4772 41.5449C31.6527 41.5449 34.7026 40.3912 37.0786 38.3008C38.9748 36.6331 40.3226 34.4627 40.9966 32.0639H54.7497ZM57 30.0078H39.3517C38.6321 35.3651 34.0515 39.4888 28.5 39.4888C22.9485 39.4888 18.3679 35.3651 17.6483 30.0078H0C0.765331 45.086 13.2277 57.08 28.5 57.08C43.7723 57.08 56.2461 45.086 57 30.0078Z" fill="#D0D0D0"/>
</svg>
