<svg width="26" height="26" viewBox="0 0 26 26" fill="none" xmlns="http://www.w3.org/2000/svg">
<path d="M13 0C10.4289 0 7.91543 0.762444 5.77759 2.1909C3.63975 3.61936 1.97351 5.64968 0.989567 8.02511C0.00562826 10.4006 -0.251809 13.0144 0.249799 15.5362C0.751406 18.0579 1.98954 20.3743 3.80762 22.1924C5.6257 24.0105 7.94208 25.2486 10.4638 25.7502C12.9856 26.2518 15.5994 25.9944 17.9749 25.0104C20.3503 24.0265 22.3806 22.3602 23.8091 20.2224C25.2376 18.0846 26 15.5712 26 13C25.9961 9.55339 24.6252 6.24906 22.1881 3.81194C19.7509 1.37481 16.4466 0.00391284 13 0ZM13 24.2433C10.7763 24.2433 8.60251 23.5839 6.75355 22.3485C4.9046 21.113 3.46351 19.3571 2.61253 17.3026C1.76155 15.2482 1.5389 12.9875 1.97273 10.8065C2.40655 8.62555 3.47739 6.62218 5.04979 5.04978C6.62219 3.47737 8.62555 2.40655 10.8065 1.97273C12.9875 1.5389 15.2482 1.76155 17.3026 2.61253C19.3571 3.46351 21.113 4.9046 22.3485 6.75355C23.5839 8.60251 24.2433 10.7763 24.2433 13C24.2399 15.9809 23.0543 18.8387 20.9465 20.9465C18.8387 23.0543 15.9809 24.2399 13 24.2433Z" fill="#F20530"/>
<path d="M13 14.5658C13.8647 14.5658 14.5658 13.8647 14.5658 13C14.5658 12.1352 13.8647 11.4342 13 11.4342C12.1352 11.4342 11.4342 12.1352 11.4342 13C11.4342 13.8647 12.1352 14.5658 13 14.5658Z" fill="#F20530"/>
<path d="M17.5154 16.5969C18.4282 15.4481 18.8691 13.9948 18.7485 12.5325C18.628 11.0702 17.9551 9.70877 16.8665 8.72494C15.778 7.74111 14.3556 7.20881 12.8886 7.23627C11.4216 7.26373 10.0202 7.84888 8.96923 8.87275C7.91828 9.89662 7.29675 11.2823 7.23102 12.7481C7.16528 14.2139 7.66028 15.6497 8.61536 16.7635C9.57044 17.8773 10.9139 18.5856 12.3725 18.7443C13.8312 18.9029 15.2955 18.5001 16.4677 17.6176L19.5009 20.6509C19.5683 20.7212 19.649 20.7774 19.7384 20.8161C19.8277 20.8548 19.9239 20.8753 20.0213 20.8763C20.1187 20.8774 20.2153 20.859 20.3055 20.8222C20.3957 20.7854 20.4776 20.731 20.5464 20.6621C20.6153 20.5933 20.6697 20.5114 20.7065 20.4212C20.7433 20.331 20.7617 20.2344 20.7606 20.137C20.7596 20.0396 20.7391 19.9434 20.7004 19.8541C20.6617 19.7647 20.6055 19.684 20.5352 19.6166L17.5154 16.5969ZM8.68572 12.9974C8.68572 12.1441 8.93874 11.31 9.4128 10.6005C9.88686 9.89106 10.5607 9.33809 11.349 9.01156C12.1373 8.68502 13.0048 8.59958 13.8416 8.76604C14.6785 8.93251 15.4473 9.3434 16.0506 9.94676C16.654 10.5501 17.0649 11.3189 17.2313 12.1557C17.3978 12.9926 17.3124 13.8601 16.9858 14.6484C16.6593 15.4367 16.1063 16.1105 15.3969 16.5846C14.6874 17.0586 13.8533 17.3117 13 17.3117C11.8566 17.3103 10.7605 16.8557 9.95174 16.0475C9.14303 15.2392 8.68776 14.1433 8.68572 13V12.9974Z" fill="#F20530"/>
</svg>
