<svg width="18" height="43" viewBox="0 0 18 43" fill="none" xmlns="http://www.w3.org/2000/svg">
<path d="M16.3269 32.7152C15.8556 32.244 15.1278 32.244 14.6566 32.7152L10.3506 37.0603V5.79557L14.6765 10.1608C14.9034 10.3884 15.1885 10.5139 15.5116 10.5139C15.8347 10.5139 16.1289 10.3884 16.3568 10.1608L17.001 9.51182C17.2286 9.28422 17.3512 8.98063 17.3512 8.65683C17.3512 8.33337 17.2251 8.02943 16.9975 7.80218L9.54648 0.352239C9.31365 0.119058 9.0017 -0.00537457 8.68173 0.000202256C8.34816 -0.00572312 8.03586 0.11871 7.80338 0.351891L0.356225 7.79904C-0.0993317 8.25425 -0.0993317 9.05383 0.356225 9.50869L1.00488 10.1577C1.47647 10.6286 2.27465 10.6286 2.74485 10.1573L6.99857 5.93499V36.9547L2.72568 32.7118C2.25374 32.2405 1.47124 32.2405 1 32.7118L0.344026 33.3608C-0.112228 33.816 -0.115713 34.6155 0.339844 35.0704L7.78734 42.5207C8.02087 42.7532 8.33143 42.8783 8.6514 42.8717C8.98497 42.8783 9.29657 42.7535 9.5294 42.5207L16.9762 35.0735C17.4321 34.6183 17.4321 33.8191 16.9762 33.3639L16.3269 32.7152Z" fill="#D0D0D0"/>
</svg>
