<svg width="49" height="51" viewBox="0 0 49 51" fill="none" xmlns="http://www.w3.org/2000/svg">
<path d="M48.1298 40.1161L44.3544 18.7462C43.5729 14.3231 39.7456 11.1128 35.2542 11.1128H29.913C30.7206 9.96485 31.1967 8.56779 31.1967 7.06074C31.1968 3.16749 28.0291 0 24.1358 0C20.2426 0 17.075 3.16749 17.075 7.06084C17.075 8.56789 17.5511 9.96495 18.3587 11.1129H13.0175C8.526 11.1129 4.69875 14.3232 3.91726 18.7463L0.141866 40.1161C-0.334637 42.8136 0.401767 45.5641 2.16205 47.6627C3.92243 49.7614 6.50293 50.965 9.2422 50.965H39.0296C41.7689 50.965 44.3494 49.7613 46.1097 47.6628C47.8701 45.5642 48.6062 42.8136 48.1298 40.1161ZM24.1358 3.00883C26.3701 3.00883 28.1878 4.82654 28.1878 7.06084C28.1878 9.29514 26.37 11.1129 24.1358 11.1129C21.9016 11.1129 20.0838 9.29514 20.0838 7.06084C20.0838 4.82654 21.9015 3.00883 24.1358 3.00883ZM43.8044 45.7291C42.6172 47.1445 40.8769 47.9562 39.0296 47.9562H9.2422C7.39492 47.9562 5.65454 47.1445 4.46742 45.7291C3.28029 44.3138 2.78358 42.4587 3.105 40.6396L6.88039 19.2697C7.40746 16.2868 9.98856 14.1216 13.0176 14.1216H35.2543C38.2835 14.1216 40.8646 16.2866 41.3915 19.2695L45.1669 40.6395C45.4883 42.4587 44.9914 44.3138 43.8044 45.7291Z" fill="#D0D0D0"/>
<path d="M19.1889 31.0388L22.9588 27.1433C23.5367 26.5463 23.521 25.5939 22.9239 25.0161C22.3268 24.4381 21.3744 24.454 20.7965 25.0509L16.5805 29.4075V26.0971C16.5805 25.2662 15.9069 24.5927 15.076 24.5927C14.2451 24.5927 13.5715 25.2662 13.5715 26.0971V35.9806C13.5715 36.8115 14.2451 37.4851 15.076 37.4851C15.9069 37.4851 16.5805 36.8115 16.5805 35.9806V32.6702L20.7965 37.0268C21.0916 37.3318 21.4844 37.4851 21.8778 37.4851C22.2545 37.4851 22.6318 37.3444 22.9239 37.0618C23.521 36.4839 23.5365 35.5316 22.9588 34.9345L19.1889 31.0388Z" fill="#D0D0D0"/>
<path d="M33.196 29.9597H30.9377C30.1068 29.9597 29.4332 30.6333 29.4332 31.4641C29.4332 32.295 30.1068 32.9686 30.9377 32.9686H31.6668C31.5235 33.8232 30.7786 34.4764 29.8838 34.4764C28.887 34.4764 28.076 33.6655 28.076 32.6687V29.4095C28.076 28.4127 28.887 27.6017 29.8838 27.6017C30.4446 27.6017 30.9645 27.8558 31.3104 28.2989C31.8216 28.9537 32.767 29.0704 33.422 28.5591C34.0769 28.0478 34.1934 27.1024 33.6823 26.4476C32.7623 25.269 31.3778 24.593 29.8839 24.593C27.2281 24.593 25.0673 26.7538 25.0673 29.4096V32.6688C25.0673 35.3246 27.2281 37.4854 29.8839 37.4854C32.5398 37.4854 34.7005 35.3246 34.7005 32.6688V31.4643C34.7005 30.6333 34.0269 29.9597 33.196 29.9597Z" fill="#D0D0D0"/>
</svg>
