<svg width="39" height="47" viewBox="0 0 39 47" fill="none" xmlns="http://www.w3.org/2000/svg">
<path fill-rule="evenodd" clip-rule="evenodd" d="M27.1338 0.770551C27.1663 0.723393 27.2311 0.711603 27.2783 0.745498L30.502 3.00171C30.5492 3.03413 30.561 3.09897 30.5271 3.14613L26.0401 9.55223C28.2217 10.2493 29.7075 11.0009 29.7075 11.0009C29.7075 11.0009 26.0755 17.2478 19.9141 17.2478C13.7526 17.2478 9.37477 11.4253 9.37477 11.4253C9.37477 11.4253 10.9269 10.435 13.2279 9.58613L8.30612 3.72234C8.26926 3.67813 8.27514 3.61181 8.31936 3.57497L11.3338 1.04613C11.378 1.00929 11.4443 1.01518 11.4812 1.05939L17.7119 8.48381C18.2455 8.42339 18.7894 8.3895 19.3377 8.3895C20.1263 8.3895 20.9135 8.44992 21.6829 8.5516L27.1338 0.770551ZM28.3529 17.544C29.9964 16.3695 32.4846 13.3057 32.4846 13.3057C32.4846 13.3057 38.8391 18.3398 38.8391 29.0152C38.8391 39.6906 27.8532 46.1158 27.8532 46.1158C27.8532 46.1158 22.6042 40.8164 21.3159 34.0979C20.0276 27.3794 23.2218 19.9196 23.2218 19.9196C23.2218 19.9196 26.7093 18.7185 28.3529 17.544ZM10.6469 17.544C9.00333 16.3695 6.51516 13.3057 6.51516 13.3057C6.51516 13.3057 0.160645 18.3398 0.160645 29.0152C0.160645 39.6906 11.1465 46.1158 11.1465 46.1158C11.1465 46.1158 16.3956 40.8164 17.6839 34.0979C18.9722 27.3794 15.778 19.9196 15.778 19.9196C15.778 19.9196 12.2904 18.7185 10.6469 17.544Z" fill="url(#paint0_linear)"/>
<defs>
<linearGradient id="paint0_linear" x1="19.1446" y1="11.0819" x2="20.0089" y2="54.5982" gradientUnits="userSpaceOnUse">
<stop stop-color="white"/>
<stop offset="1" stop-color="white"/>
</linearGradient>
</defs>
</svg>
