<svg width="46" height="47" viewBox="0 0 46 47" fill="none" xmlns="http://www.w3.org/2000/svg">
<path fill-rule="evenodd" clip-rule="evenodd" d="M20.9423 40.7672C21.8046 40.8998 22.6876 40.9676 23.5882 40.9676C33.1649 40.9676 40.9286 33.2057 40.9286 23.6312C40.9286 14.0567 33.1649 6.29478 23.5882 6.29478C22.9455 6.29478 22.3117 6.33014 21.6867 6.39793C26.4375 9.99667 29.5786 16.2289 29.5786 23.3158C29.5786 30.7668 26.1073 37.2731 20.9423 40.7672ZM23.2728 46.0106C35.8093 46.0106 45.9728 35.8495 45.9728 23.3158C45.9728 10.7821 35.8093 0.621094 23.2728 0.621094C10.7362 0.621094 0.572754 10.7821 0.572754 23.3158C0.572754 35.8495 10.7362 46.0106 23.2728 46.0106Z" fill="white"/>
</svg>
