<svg width="41" height="46" viewBox="0 0 41 46" fill="none" xmlns="http://www.w3.org/2000/svg">
<path fill-rule="evenodd" clip-rule="evenodd" d="M22.7738 23.0591C23.0818 22.872 23.3428 22.4785 23.5536 22.0423C26.3247 23.1741 28.2704 25.8488 28.2704 28.9686C28.2704 33.1126 24.8345 36.4726 20.5952 36.4726C18.8558 36.4726 17.2506 35.9067 15.9638 34.9518C15.5422 34.7513 15.1943 34.5598 14.9099 34.4021C14.4691 34.1589 14.1802 33.9983 13.9989 34.0233C13.4697 34.0956 13.6231 34.5833 13.7631 35.0254C13.8574 35.3261 13.9458 35.6061 13.8087 35.721C13.6658 35.8419 13.2015 35.3998 12.6605 34.884C11.9235 34.181 11.0406 33.3395 10.6249 33.593C10.2962 33.7934 10.6145 34.3343 11.0066 34.9974L11.0361 35.0461C11.2012 35.3261 11.3928 35.612 11.5668 35.8728C11.922 36.4019 12.208 36.8292 12.065 36.9015C11.8925 36.9884 10.6868 36.1764 9.67263 35.0475C9.28054 34.6113 8.90174 34.1398 8.54503 33.7006C7.77706 32.7398 7.13439 31.9396 6.77326 32.0353C6.33842 32.1488 6.6671 33.0448 7.15058 33.9069C7.3761 34.3107 7.64142 34.7204 7.836 35.0756C8.22956 35.6282 8.50078 36.0482 8.40202 36.0998C8.26936 36.169 7.10047 35.0299 6.30597 33.5945C5.83428 32.7412 5.43924 31.7995 5.1179 31.0362C4.77003 30.208 4.51211 29.592 4.34112 29.5301C3.74857 29.3149 3.74852 30.5219 3.98584 32.2652C4.0168 32.4922 4.0625 32.7309 4.11998 32.9741C6.42389 40.428 13.5022 45.8541 21.8761 45.8541C32.1191 45.8541 40.4223 37.7341 40.4223 27.7189C40.4223 18.1857 32.9003 10.3707 23.3428 9.63976C23.3546 9.19029 23.5889 8.30017 23.5889 8.30017C23.5889 8.30017 25.2767 4.21954 25.3651 3.34712C25.371 3.28965 25.3784 3.22628 25.3857 3.15996C25.4904 2.21828 25.6864 0.466064 24.1785 0.466064C23.3737 0.466064 22.9993 1.06438 22.5704 1.74965C22.4053 2.01196 22.2343 2.28754 22.0265 2.54691C20.5303 4.41407 18.0157 6.74691 16.5903 7.98923C13.5759 10.6153 10.619 12.7728 8.89437 14.0313C8.11019 14.6031 7.58103 14.9907 7.41594 15.1499C6.1807 16.3539 1.7542 24.3383 1.7542 24.3383C1.7542 24.3383 0.322914 26.8995 0.831453 27.4198C1.33999 27.94 2.56787 27.8206 2.56787 27.8206C2.56787 27.8206 19.0563 24.0391 20.5318 23.7414C20.9298 23.6604 21.2099 23.6147 21.4251 23.5793C22.0088 23.4791 22.1134 23.4614 22.7738 23.0591ZM11.1172 18.1989C10.2328 19.0404 8.76464 21.0475 8.76464 21.0475C8.76464 21.0475 11.4931 21.2155 12.9951 19.7875C14.4971 18.3595 14.1537 15.9265 14.1537 15.9265C14.1537 15.9265 12.0016 17.3574 11.1172 18.1989Z" fill="white"/>
</svg>
