<svg width="46" height="47" viewBox="0 0 46 47" fill="none" xmlns="http://www.w3.org/2000/svg">
<path fill-rule="evenodd" clip-rule="evenodd" d="M9.1561 36.9285L16.4378 34.8182L22.7275 46.3159C22.7363 46.3307 22.7569 46.3307 22.7658 46.3159L29.0554 34.8182L36.3371 36.9285C36.3534 36.933 36.3681 36.9182 36.3637 36.902L34.2514 29.765L45.4348 23.6507C45.4496 23.6418 45.4496 23.6212 45.4348 23.6123L34.16 17.4465L36.3637 9.99845C36.3681 9.98224 36.3534 9.96751 36.3371 9.97193L28.8845 12.1323L22.7658 0.947088C22.7569 0.932351 22.7363 0.932351 22.7275 0.947088L16.6088 12.1323L9.1561 9.97193C9.13989 9.96751 9.12514 9.98224 9.12956 9.99845L11.3332 17.4465L0.0584185 23.6123C0.0436782 23.6212 0.0436782 23.6418 0.0584185 23.6507L11.2419 29.765L9.12956 36.902C9.12366 36.9182 9.13989 36.933 9.1561 36.9285ZM14.8061 23.7096L19.9651 26.5302L22.7864 31.6881C22.7953 31.7029 22.8159 31.7029 22.8247 31.6881L25.646 26.5302L30.8051 23.7096C30.8199 23.7008 30.8199 23.6801 30.8051 23.6713L25.646 20.8507L22.8247 15.6928C22.8159 15.678 22.7953 15.678 22.7864 15.6928L19.9651 20.8507L14.8061 23.6713C14.7913 23.6801 14.7913 23.7022 14.8061 23.7096Z" fill="white"/>
</svg>
