<svg width="43" height="46" viewBox="0 0 43 46" fill="none" xmlns="http://www.w3.org/2000/svg">
<path fill-rule="evenodd" clip-rule="evenodd" d="M6.55277 3.81622C7.10258 1.64696 9.06746 0.0421143 11.4082 0.0421143C13.1638 0.0421143 14.7086 0.945486 15.6018 2.3278H17.0655C17.975 1.37875 19.2456 0.799588 20.6533 0.799588C22.7155 0.799588 25.2537 3.83538 25.2537 3.83538H26.1514C26.9312 3.34906 27.8539 3.06759 28.8415 3.06759C30.9361 3.06759 32.7344 4.33348 33.5142 6.14022H36.9C36.9295 6.14022 36.956 6.14759 36.9796 6.16233C37.5397 6.11075 38.1249 6.15054 38.719 6.29496C40.9728 6.84464 42.5352 8.90043 42.5352 11.22V26.1145L42.6237 26.1425L42.5352 26.1705V26.3872C42.6119 26.4785 42.6089 26.5699 42.6045 26.6613C42.3009 37.0729 32.9334 45.4316 21.4227 45.4316C9.72193 45.4316 0.236572 36.7943 0.236572 26.1411C0.236572 20.9979 2.44614 16.3263 6.04866 12.8676C6.03981 17.8811 6.12383 23.064 6.51445 22.9756C7.56101 22.7369 6.74292 7.20864 6.55277 3.81622Z" fill="white"/>
</svg>
