<svg width="35" height="46" viewBox="0 0 35 46" fill="none" xmlns="http://www.w3.org/2000/svg">
<path fill-rule="evenodd" clip-rule="evenodd" d="M26.0703 35.2515C26.6319 33.2016 25.5426 28.9854 25.5426 28.9854C25.5426 28.9854 24.7526 32.4191 23.5188 33.6894C22.4664 34.7726 21.1766 35.5227 19.3267 35.7202C20.839 34.9863 21.8797 33.4551 21.8797 31.6852C21.8797 29.2006 19.8308 27.1861 17.3028 27.1861C14.7749 27.1861 12.726 29.2006 12.726 31.6852C12.726 32.3631 12.8793 33.0071 13.152 33.5848C11.5704 32.3248 11.3227 30.3058 11.3227 30.3058C11.3227 30.3058 9.55685 37.6345 14.4226 41.0814C19.2869 44.5284 28.8179 41.5663 28.8179 41.5663C28.8179 41.5663 15.1788 51.16 5.07286 40.7189C-3.63273 31.7235 2.79991 19.881 2.79991 19.881C2.79991 19.881 2.52279 20.9789 2.52279 22.2551C2.52279 23.5298 3.21411 24.501 3.21411 24.501C3.21411 24.501 5.27774 20.1536 6.88296 18.3852C8.40268 16.7126 10.3071 15.3553 11.9521 14.1823C13.2183 13.2804 14.3312 12.4875 14.996 11.7448C18.656 7.65385 16.4125 0.199951 16.4125 0.199951C16.4125 0.199951 20.5383 3.837 21.691 8.53364C22.1303 10.3242 21.8473 12.3608 21.5952 14.1823C21.1854 17.14 20.8538 19.5288 23.8166 19.3741C28.6027 19.1235 24.443 11.7448 24.443 11.7448C24.443 11.7448 35.3007 17.4509 34.49 27.4292C33.6793 37.4075 22.6211 39.677 22.6211 39.677C22.6211 39.677 25.5087 37.3029 26.0703 35.2515Z" fill="white"/>
</svg>
