<svg width="46" height="40" viewBox="0 0 46 40" fill="none" xmlns="http://www.w3.org/2000/svg">
<path fill-rule="evenodd" clip-rule="evenodd" d="M16.3487 39.7746C22.9995 39.7746 28.6937 36.0786 31.0433 30.8411C31.0728 30.7777 21.6066 33.3007 21.9073 32.4091C22.0414 32.0112 27.8447 29.892 32.0722 27.4192C34.5014 25.9986 35.6216 22.9908 35.6216 22.9908C35.6216 22.9908 31.5282 24.9773 29.4587 25.4813C25.2887 26.4967 21.6169 26.3876 21.6169 26.2815C21.6169 26.0531 27.712 24.8948 36.1847 19.7325C40.1705 17.3053 41.2524 13.123 41.2524 13.123C41.2524 13.123 36.8716 15.7329 34.2227 16.5935C27.9419 18.636 22.2094 19.252 22.2094 18.975C22.2094 18.3826 27.2536 16.9958 32.6014 14.4051C35.3828 13.0581 37.7899 11.2986 40.5817 9.34151C45.1482 6.13919 45.9015 0.436035 45.9015 0.436035C45.9015 0.436035 41.3983 3.34067 39.1991 4.30446C30.1294 8.28488 22.121 10.3716 16.3473 10.824C7.63135 11.5064 0.5 17.5868 0.5 25.4798C0.501474 33.3744 7.59598 39.7746 16.3487 39.7746Z" fill="white"/>
</svg>
