<svg width="46" height="47" viewBox="0 0 46 47" fill="none" xmlns="http://www.w3.org/2000/svg">
<path fill-rule="evenodd" clip-rule="evenodd" d="M33.1652 45.8529C29.0704 46.0622 24.3815 46.0622 22.7881 45.8529C10.3606 44.2186 0.449219 35.1333 0.449219 22.8546C0.449219 10.5758 10.6126 0.621094 23.1492 0.621094C35.6858 0.621094 45.8492 10.5758 45.8492 22.8546C45.8492 28.5651 43.6514 33.7731 40.0371 37.7108C39.0554 38.7807 40.4027 39.5293 41.7706 40.2927C43.1119 41.0398 44.4739 41.7988 43.6824 42.8819C42.8098 44.0756 38.0811 45.6024 33.1652 45.8529ZM19.9565 20.087C19.9565 22.0057 18.369 23.5605 16.41 23.5605C14.451 23.5605 12.8635 22.0057 12.8635 20.087C12.8635 18.8005 13.5784 17.6775 14.6397 17.0763C14.7001 18.7489 16.0768 20.087 17.7646 20.087H19.9565ZM30.9498 17.0763C30.8893 18.7489 29.5126 20.087 27.8248 20.087H25.6315C25.6315 22.0057 27.219 23.5605 29.178 23.5605C31.137 23.5605 32.7245 22.0057 32.7245 20.087C32.726 18.8005 32.0111 17.6775 30.9498 17.0763Z" fill="white"/>
</svg>
