<svg width="43" height="46" viewBox="0 0 43 46" fill="none" xmlns="http://www.w3.org/2000/svg">
<path fill-rule="evenodd" clip-rule="evenodd" d="M7.58692 39.7949C7.42477 39.6431 7.26558 39.4884 7.10639 39.3292C-1.24249 30.9823 -1.24249 17.4509 7.10639 9.10395C15.4553 0.758478 42.057 0.199951 42.057 0.199951C42.057 0.199951 45.6875 30.9837 37.3401 39.3292C29.9258 46.7418 18.4195 47.5715 10.0898 41.8168L16.801 33.5818L27.5305 31.2652L18.7718 30.3898L24.3378 24.7235L30.6731 23.3353L25.6629 21.8513L30.6731 12.8162L23.5462 20.808L20.7942 16.9248L21.7626 23.3353L16.7996 28.9294L14.5001 21.8543V31.2667L7.58692 39.7949Z" fill="white"/>
</svg>
