<svg width="46" height="34" viewBox="0 0 46 34" fill="none" xmlns="http://www.w3.org/2000/svg">
<path fill-rule="evenodd" clip-rule="evenodd" d="M10.3035 32.9339C10.2918 32.9339 10.2829 32.9221 10.2873 32.9104L21.885 0.147409C21.8879 0.14004 21.8938 0.13562 21.9012 0.13562H34.2815C34.2889 0.13562 34.2963 0.14004 34.2977 0.147409L45.7229 32.9104C45.7273 32.9221 45.7185 32.9339 45.7067 32.9339H10.6514H10.3035ZM0.343547 33.0224C0.331755 33.0224 0.322908 33.0106 0.32733 32.9988L8.94891 9.9872C8.95185 9.97983 8.95775 9.97541 8.96512 9.97541H16.4561C16.4679 9.97541 16.4768 9.98721 16.4723 9.999L8.13524 33.0106C8.13229 33.0179 8.12639 33.0224 8.11902 33.0224H0.343547Z" fill="white"/>
</svg>
