<svg width="47" height="40" viewBox="0 0 47 40" fill="none" xmlns="http://www.w3.org/2000/svg">
<path fill-rule="evenodd" clip-rule="evenodd" d="M23.0004 5.85808L11.7241 0.274292L12.0646 12.7534L22.7115 18.0248L23.0004 5.85808ZM34.8191 12.7328L34.682 0.748779L24.2356 6.43573L24.3638 17.7507L34.8191 12.7328ZM35.5118 26.3615L46.3754 20.1484L35.5074 14.4335L24.6423 20.1396L35.5118 26.3615ZM22.7101 20.1484L11.8465 26.3615L0.977051 20.1396L11.8421 14.4335L22.7101 20.1484ZM35.6813 39.831L24.405 34.2472L24.6939 22.0804L35.3408 27.3518L35.6813 39.831ZM11.845 27.5374L11.9821 39.5214L22.4285 33.8345L22.3002 22.5195L11.845 27.5374Z" fill="white"/>
</svg>
