<svg width="46" height="47" viewBox="0 0 46 47" fill="none" xmlns="http://www.w3.org/2000/svg">
<path fill-rule="evenodd" clip-rule="evenodd" d="M38.4369 35.5003C43.0212 31.8352 45.9014 26.5403 45.9014 20.6514C45.9014 9.58846 35.738 0.621094 23.2014 0.621094C10.6649 0.621094 0.501465 9.58846 0.501465 20.6514C0.501465 26.328 3.17681 31.452 7.47654 35.0979C7.21564 35.9969 7.07268 36.9754 7.07268 37.9982C7.07268 42.4236 9.74653 46.0106 13.0469 46.0106C15.1901 46.0106 17.071 44.4956 18.1249 42.2217C19.1788 44.4971 21.0582 46.0106 23.2029 46.0106C25.1575 46.0106 26.8924 44.752 27.9817 42.8068C29.071 44.752 30.8059 46.0106 32.7605 46.0106C36.0593 46.0106 38.7347 42.4236 38.7347 37.9982C38.7332 37.1257 38.6286 36.2872 38.4369 35.5003ZM36.3438 21.0493C36.3438 26.6655 30.3254 31.2192 22.9037 31.2192C15.4805 31.2192 9.46351 26.6655 9.46351 21.0493C9.46351 15.4331 15.4805 10.8794 22.9037 10.8794C30.3254 10.8794 36.3438 15.4331 36.3438 21.0493Z" fill="white"/>
</svg>
