<svg width="47" height="50" viewBox="0 0 47 50" fill="none" xmlns="http://www.w3.org/2000/svg">
<path fill-rule="evenodd" clip-rule="evenodd" d="M42.6183 41.4176C42.6183 41.4176 36.4539 46.3603 24.1856 44.3149C14.8786 42.7631 9.91405 32.5048 9.91405 26.9917C9.91405 13.9187 19.5925 10.9433 26.1342 10.9433C32.6774 10.9433 36.9447 17.3214 36.9447 22.2582C36.9447 27.1951 33.4513 31.5144 28.0151 31.5144C22.5789 31.5144 20.9692 27.6991 20.9692 24.1917C20.9692 20.6843 23.8082 19.4479 26.3966 19.4479C28.985 19.4479 29.8724 21.657 29.8724 23.5566C29.8724 25.4561 28.3983 26.1355 27.169 26.1355C25.9397 26.1355 25.8188 25.5151 25.3471 24.8637C24.8769 24.2123 25.947 21.7454 24.1841 21.7454C22.4212 21.7454 22.0925 24.5808 22.0925 24.5808C22.0925 24.5808 22.7351 30.054 28.0136 29.9597C33.2936 29.8654 35.798 25.7848 35.0698 21.7454C34.3416 17.706 30.4207 13.4132 23.5385 14.2797C16.6563 15.1462 13.8453 22.0991 15.0849 29.5294C16.3231 36.9597 25.2262 41.2643 32.2264 39.7155C39.2265 38.1667 46.1987 33.1001 46.1987 20.254C46.1987 7.40792 35.0713 -0.314179 21.8021 0.959084C8.53289 2.23235 0.296035 13.8302 0.823737 27.7654C1.35144 41.7005 14.5764 49.29 25.7613 49.682C36.9447 50.0726 43.8019 43.6001 43.8019 43.6001C43.8019 43.6001 45.3437 42.2252 44.7394 41.1523C44.135 40.081 42.6183 41.4176 42.6183 41.4176Z" fill="white"/>
</svg>
