<svg width="47" height="37" viewBox="0 0 47 37" fill="none" xmlns="http://www.w3.org/2000/svg">
<path fill-rule="evenodd" clip-rule="evenodd" d="M35.7099 17.6211C35.707 17.6181 35.707 17.6137 35.707 17.6093L38.6035 0.725298C38.6049 0.717929 38.6123 0.712036 38.6197 0.712036H39.5365C39.5439 0.712036 39.5498 0.716456 39.5513 0.723825L46.0753 21.3775C46.0768 21.3834 46.0753 21.3908 46.0694 21.3952L41.2582 25.1501C41.2508 25.156 41.2405 25.1546 41.2346 25.1472L35.7099 17.6211ZM0.688563 28.7474L10.6058 31.9895C10.6102 31.9895 10.6146 31.988 10.6205 31.988L32.7869 16.6883C32.7899 16.6838 32.7914 16.6809 32.7943 16.6779L35.169 0.731195C35.1631 0.723826 35.1601 0.720878 35.1528 0.712036H15.5187C15.5143 0.71351 15.5099 0.71646 15.5069 0.717933L0.679724 18.5996C0.67825 18.6026 0.676767 18.607 0.675293 18.6099V28.7327C0.681189 28.7386 0.684141 28.7415 0.688563 28.7474ZM14.6476 32.8973L25.4817 36.4459C25.4861 36.4474 25.492 36.4474 25.4964 36.443L38.3956 27.1927C38.403 27.1882 38.4045 27.1779 38.4 27.1706L33.5652 19.976C33.5608 19.9687 33.5505 19.9672 33.5431 19.9716L14.6476 32.8973Z" fill="white"/>
</svg>
