<svg width="46" height="40" viewBox="0 0 46 40" fill="none" xmlns="http://www.w3.org/2000/svg">
<path fill-rule="evenodd" clip-rule="evenodd" d="M0.278348 19.607C0.272452 19.5967 0.272452 19.5834 0.278348 19.5731L11.6947 0.0733418C11.7006 0.063026 11.7109 0.0571289 11.7227 0.0571289H34.3505C34.3623 0.0571289 34.3726 0.063026 34.3785 0.0733418L45.6696 19.5731C45.6755 19.5834 45.6755 19.5967 45.6696 19.6056L34.3785 39.0832C34.3726 39.0935 34.3623 39.0994 34.3505 39.0994H11.7227C11.7109 39.0994 11.7006 39.0935 11.6947 39.0832L0.278348 19.607ZM33.5029 19.5982C33.5029 25.4089 28.7905 30.1203 22.9784 30.1203C17.1663 30.1203 12.4538 25.4089 12.4538 19.5982C12.4538 13.7874 17.1663 9.07608 22.9784 9.07608C28.7905 9.07608 33.5029 13.7874 33.5029 19.5982Z" fill="white"/>
</svg>
