<svg width="30" height="45" viewBox="0 0 30 45" fill="none" xmlns="http://www.w3.org/2000/svg">
<path fill-rule="evenodd" clip-rule="evenodd" d="M29.6562 30.1543C29.6562 38.0666 23.2162 44.48 15.2727 44.48C7.32917 44.48 0.88916 38.0666 0.88916 30.1543C0.88916 22.4588 14.4944 1.32466 15.2403 0.172238C15.258 0.145712 15.2874 0.145712 15.3036 0.172238C16.051 1.32466 29.6562 22.4588 29.6562 30.1543ZM12.8745 39.8866C5.57508 38.2906 6.82505 30.2059 6.82505 30.2059C6.82505 30.2059 8.81793 35.0853 13.6542 36.6666C18.4905 38.2478 24.3365 35.9282 24.3365 35.9282C24.3365 35.9282 20.1738 41.484 12.8745 39.8866Z" fill="white"/>
</svg>
